<svg width="55" height="55" viewBox="0 0 55 55" fill="none" xmlns="http://www.w3.org/2000/svg">
<circle cx="27.5" cy="27.5" r="27.5" fill="#503900"/>
<circle cx="27.5" cy="27.5" r="23" stroke="#F3BA2F" stroke-opacity="0.44" stroke-width="9"/>
<path d="M22.3416 26.0853L27.0029 21.4256L31.666 26.0891L34.3767 23.3763L27.0029 16L19.629 23.3744L22.3416 26.0853Z" fill="#F3BA2F"/>
<path d="M15 28.0019L17.7107 25.2891L20.4233 28.0019L17.7107 30.7128L15 28.0019Z" fill="#F3BA2F"/>
<path d="M22.3416 29.9166L27.0029 34.5782L31.666 29.9147L34.3786 32.6237L27.0047 40L19.629 32.6294L22.3416 29.9166Z" fill="#F3BA2F"/>
<path d="M33.5768 28.0019L36.2875 25.2891L39.0001 28L36.2875 30.7147L33.5768 28.0019Z" fill="#F3BA2F"/>
<path d="M29.7533 28L27.0028 25.2474L24.9689 27.2815L24.7338 27.5147L24.2523 27.9962L27.0028 30.745L29.7533 28.0019V28Z" fill="#F3BA2F"/>
</svg>
