<svg width="87" height="30" viewBox="0 0 87 30" fill="none" xmlns="http://www.w3.org/2000/svg">
<path d="M1.2157 22.133C1.11773 22.1822 1.03016 22.2508 0.957979 22.3348C0.885797 22.4188 0.83041 22.5166 0.795004 22.6226C0.759597 22.7286 0.744837 22.8407 0.751596 22.9526C0.758354 23.0645 0.786503 23.1738 0.834398 23.2745C0.882294 23.3752 0.949024 23.4652 1.03076 23.5394C1.1125 23.6136 1.20767 23.6705 1.31081 23.7069C1.41395 23.7433 1.52303 23.7584 1.63187 23.7515C1.74071 23.7446 1.84717 23.7156 1.94514 23.6664C39.2127 4.93587 78.1381 -2.17467 83.8631 5.1517C84.3307 5.72745 84.6645 6.40526 84.8388 7.13355C85.013 7.86185 85.0233 8.62141 84.8689 9.35441C83.3768 17.6008 66.4893 27.7442 66.3124 27.8464C66.1537 27.9403 66.0297 28.0856 65.9598 28.2595C65.8899 28.4334 65.8779 28.6263 65.9259 28.8079C65.9739 28.9895 66.0791 29.1497 66.2249 29.2635C66.3708 29.3772 66.5492 29.4381 66.7324 29.4367C66.8798 29.4384 67.0249 29.3991 67.1523 29.3231C67.8707 28.8914 84.8357 18.6799 86.5045 9.67245C86.7051 8.69756 86.689 7.68873 86.4575 6.72112C86.2259 5.7535 85.7849 4.85207 85.1673 4.08398C78.1824 -4.83262 37.3891 3.9363 1.2157 22.133Z" fill="white"/>
</svg>
