<svg width="106" height="32" viewBox="0 0 106 32" fill="none" xmlns="http://www.w3.org/2000/svg">
<path d="M5.47884 27.1179C9.08182 29.7304 14.3205 31.048 20.9517 31.048C25.7853 30.9902 30.6001 30.4192 35.3194 29.3442C46.3715 26.9475 57.8988 21.7225 70.1335 16.1794C81.4176 11.068 93.0886 5.78619 104.715 2.6739C104.824 2.64899 104.927 2.60179 105.018 2.53514C105.108 2.46848 105.185 2.38372 105.243 2.28594C105.301 2.18815 105.339 2.07934 105.355 1.96602C105.371 1.8527 105.365 1.73721 105.337 1.62642C105.309 1.51562 105.259 1.4118 105.191 1.3212C105.123 1.2306 105.037 1.15508 104.94 1.09911C104.843 1.04314 104.736 1.00791 104.625 0.995498C104.514 0.983089 104.402 0.99374 104.295 1.02687C92.536 4.17323 80.7987 9.48912 69.4593 14.6573C57.302 20.155 45.841 25.3573 34.9768 27.7199C22.1675 30.5028 12.0438 29.8099 6.47352 25.7662C5.31787 24.9871 4.33812 23.9625 3.60031 22.7614C2.8625 21.5603 2.38377 20.2106 2.19637 18.8033C2.18186 18.6922 2.1462 18.5851 2.09141 18.4881C2.03662 18.3911 1.96379 18.3062 1.87707 18.2382C1.79035 18.1701 1.69141 18.1203 1.58596 18.0916C1.48051 18.0628 1.3706 18.0557 1.26247 18.0706C1.15434 18.0856 1.05012 18.1222 0.955779 18.1785C0.861436 18.2348 0.778827 18.3097 0.712632 18.3988C0.646437 18.4879 0.597965 18.5896 0.569995 18.698C0.542026 18.8064 0.53511 18.9193 0.549623 19.0304C0.77413 20.6582 1.32893 22.2192 2.17809 23.6124C3.02725 25.0057 4.1518 26.1999 5.47884 27.1179Z" fill="white"/>
</svg>
