<svg width="502" height="502" viewBox="0 0 502 502" fill="none" xmlns="http://www.w3.org/2000/svg">
<path d="M251.001 251V1C389.072 1 501 112.929 501 251C501 389.071 389.072 501 251.001 501C230.03 501 209.142 498.361 188.829 493.146L251.001 251Z" fill="#CA498C" stroke="white"/>
<path d="M251.001 251L188.829 493.146C137.693 480.016 92.0268 451.035 58.3743 410.356L251.001 251Z" fill="#FDE3DF" stroke="white"/>
<path d="M251.001 251L58.3742 410.356C7.36387 348.695 -11.0446 266.34 8.85703 188.828L251.001 251Z" fill="#E6BFCE" stroke="white"/>
<path d="M251.002 251L8.85709 188.828C23.3248 132.479 56.9909 82.941 104.056 48.746L251.002 251Z" fill="#CF9BBD" stroke="white"/>
<path d="M251.002 251L104.056 48.7459C138.123 23.9943 177.891 8.24919 219.668 2.97144L251.002 251Z" fill="#B977AC" stroke="white"/>
<path d="M251.001 251L219.668 2.97132C230.061 1.65841 240.526 1 251.001 1V251Z" fill="#A2539B" stroke="white"/>
<circle cx="251.001" cy="251" r="150" fill="white"/>
<path d="M231.119 163.76V166.736H225.199V186H221.551V166.736H215.599V163.76H231.119ZM242.622 186.288C240.958 186.288 239.454 185.915 238.11 185.168C236.766 184.4 235.71 183.333 234.942 181.968C234.174 180.581 233.79 178.981 233.79 177.168C233.79 175.376 234.184 173.787 234.974 172.4C235.763 171.013 236.84 169.947 238.206 169.2C239.571 168.453 241.096 168.08 242.782 168.08C244.467 168.08 245.992 168.453 247.358 169.2C248.723 169.947 249.8 171.013 250.59 172.4C251.379 173.787 251.774 175.376 251.774 177.168C251.774 178.96 251.368 180.549 250.558 181.936C249.747 183.323 248.638 184.4 247.23 185.168C245.843 185.915 244.307 186.288 242.622 186.288ZM242.622 183.12C243.56 183.12 244.435 182.896 245.246 182.448C246.078 182 246.75 181.328 247.262 180.432C247.774 179.536 248.03 178.448 248.03 177.168C248.03 175.888 247.784 174.811 247.294 173.936C246.803 173.04 246.152 172.368 245.342 171.92C244.531 171.472 243.656 171.248 242.718 171.248C241.779 171.248 240.904 171.472 240.094 171.92C239.304 172.368 238.675 173.04 238.206 173.936C237.736 174.811 237.502 175.888 237.502 177.168C237.502 179.067 237.982 180.539 238.942 181.584C239.923 182.608 241.15 183.12 242.622 183.12ZM259.796 171.344V181.104C259.796 181.765 259.945 182.245 260.244 182.544C260.564 182.821 261.097 182.96 261.844 182.96H264.084V186H261.204C259.561 186 258.303 185.616 257.428 184.848C256.553 184.08 256.116 182.832 256.116 181.104V171.344H254.036V168.368H256.116V163.984H259.796V168.368H264.084V171.344H259.796ZM266.39 177.104C266.39 175.333 266.753 173.765 267.478 172.4C268.225 171.035 269.227 169.979 270.486 169.232C271.766 168.464 273.174 168.08 274.71 168.08C276.097 168.08 277.302 168.357 278.326 168.912C279.371 169.445 280.203 170.117 280.822 170.928V168.368H284.502V186H280.822V183.376C280.203 184.208 279.361 184.901 278.294 185.456C277.227 186.011 276.011 186.288 274.646 186.288C273.131 186.288 271.745 185.904 270.486 185.136C269.227 184.347 268.225 183.259 267.478 181.872C266.753 180.464 266.39 178.875 266.39 177.104ZM280.822 177.168C280.822 175.952 280.566 174.896 280.054 174C279.563 173.104 278.913 172.421 278.102 171.952C277.291 171.483 276.417 171.248 275.478 171.248C274.539 171.248 273.665 171.483 272.854 171.952C272.043 172.4 271.382 173.072 270.87 173.968C270.379 174.843 270.134 175.888 270.134 177.104C270.134 178.32 270.379 179.387 270.87 180.304C271.382 181.221 272.043 181.925 272.854 182.416C273.686 182.885 274.561 183.12 275.478 183.12C276.417 183.12 277.291 182.885 278.102 182.416C278.913 181.947 279.563 181.264 280.054 180.368C280.566 179.451 280.822 178.384 280.822 177.168ZM293.102 162.32V186H289.454V162.32H293.102ZM193.279 225.224C191.785 225.224 190.441 224.968 189.247 224.456C188.052 223.923 187.113 223.176 186.431 222.216C185.748 221.256 185.407 220.136 185.407 218.856H189.311C189.396 219.816 189.769 220.605 190.431 221.224C191.113 221.843 192.063 222.152 193.279 222.152C194.537 222.152 195.519 221.853 196.223 221.256C196.927 220.637 197.279 219.848 197.279 218.888C197.279 218.141 197.055 217.533 196.607 217.064C196.18 216.595 195.636 216.232 194.975 215.976C194.335 215.72 193.439 215.443 192.287 215.144C190.836 214.76 189.652 214.376 188.735 213.992C187.839 213.587 187.071 212.968 186.431 212.136C185.791 211.304 185.471 210.195 185.471 208.808C185.471 207.528 185.791 206.408 186.431 205.448C187.071 204.488 187.967 203.752 189.119 203.24C190.271 202.728 191.604 202.472 193.119 202.472C195.273 202.472 197.033 203.016 198.399 204.104C199.785 205.171 200.553 206.643 200.703 208.52H196.671C196.607 207.709 196.223 207.016 195.519 206.44C194.815 205.864 193.887 205.576 192.735 205.576C191.689 205.576 190.836 205.843 190.175 206.376C189.513 206.909 189.183 207.677 189.183 208.68C189.183 209.363 189.385 209.928 189.791 210.376C190.217 210.803 190.751 211.144 191.391 211.4C192.031 211.656 192.905 211.933 194.015 212.232C195.487 212.637 196.681 213.043 197.599 213.448C198.537 213.853 199.327 214.483 199.967 215.336C200.628 216.168 200.959 217.288 200.959 218.696C200.959 219.827 200.649 220.893 200.031 221.896C199.433 222.899 198.548 223.709 197.375 224.328C196.223 224.925 194.857 225.224 193.279 225.224ZM221.391 207.368V225H217.743V222.92C217.167 223.645 216.41 224.221 215.471 224.648C214.554 225.053 213.572 225.256 212.527 225.256C211.14 225.256 209.892 224.968 208.783 224.392C207.695 223.816 206.831 222.963 206.191 221.832C205.572 220.701 205.263 219.336 205.263 217.736V207.368H208.879V217.192C208.879 218.771 209.274 219.987 210.063 220.84C210.852 221.672 211.93 222.088 213.295 222.088C214.66 222.088 215.738 221.672 216.527 220.84C217.338 219.987 217.743 218.771 217.743 217.192V207.368H221.391ZM230.012 209.96C230.631 209.149 231.474 208.467 232.54 207.912C233.607 207.357 234.812 207.08 236.156 207.08C237.692 207.08 239.09 207.464 240.348 208.232C241.628 208.979 242.631 210.035 243.356 211.4C244.082 212.765 244.444 214.333 244.444 216.104C244.444 217.875 244.082 219.464 243.356 220.872C242.631 222.259 241.628 223.347 240.348 224.136C239.09 224.904 237.692 225.288 236.156 225.288C234.812 225.288 233.618 225.021 232.572 224.488C231.527 223.933 230.674 223.251 230.012 222.44V233.384H226.364V207.368H230.012V209.96ZM240.732 216.104C240.732 214.888 240.476 213.843 239.964 212.968C239.474 212.072 238.812 211.4 237.98 210.952C237.17 210.483 236.295 210.248 235.356 210.248C234.439 210.248 233.564 210.483 232.732 210.952C231.922 211.421 231.26 212.104 230.748 213C230.258 213.896 230.012 214.952 230.012 216.168C230.012 217.384 230.258 218.451 230.748 219.368C231.26 220.264 231.922 220.947 232.732 221.416C233.564 221.885 234.439 222.12 235.356 222.12C236.295 222.12 237.17 221.885 237.98 221.416C238.812 220.925 239.474 220.221 239.964 219.304C240.476 218.387 240.732 217.32 240.732 216.104ZM251.86 209.96C252.478 209.149 253.321 208.467 254.388 207.912C255.454 207.357 256.66 207.08 258.004 207.08C259.54 207.08 260.937 207.464 262.196 208.232C263.476 208.979 264.478 210.035 265.204 211.4C265.929 212.765 266.292 214.333 266.292 216.104C266.292 217.875 265.929 219.464 265.204 220.872C264.478 222.259 263.476 223.347 262.196 224.136C260.937 224.904 259.54 225.288 258.004 225.288C256.66 225.288 255.465 225.021 254.42 224.488C253.374 223.933 252.521 223.251 251.86 222.44V233.384H248.212V207.368H251.86V209.96ZM262.58 216.104C262.58 214.888 262.324 213.843 261.812 212.968C261.321 212.072 260.66 211.4 259.828 210.952C259.017 210.483 258.142 210.248 257.204 210.248C256.286 210.248 255.412 210.483 254.58 210.952C253.769 211.421 253.108 212.104 252.596 213C252.105 213.896 251.86 214.952 251.86 216.168C251.86 217.384 252.105 218.451 252.596 219.368C253.108 220.264 253.769 220.947 254.58 221.416C255.412 221.885 256.286 222.12 257.204 222.12C258.142 222.12 259.017 221.885 259.828 221.416C260.66 220.925 261.321 220.221 261.812 219.304C262.324 218.387 262.58 217.32 262.58 216.104ZM273.707 201.32V225H270.059V201.32H273.707ZM280.513 205.032C279.851 205.032 279.297 204.808 278.849 204.36C278.401 203.912 278.177 203.357 278.177 202.696C278.177 202.035 278.401 201.48 278.849 201.032C279.297 200.584 279.851 200.36 280.513 200.36C281.153 200.36 281.697 200.584 282.145 201.032C282.593 201.48 282.817 202.035 282.817 202.696C282.817 203.357 282.593 203.912 282.145 204.36C281.697 204.808 281.153 205.032 280.513 205.032ZM282.305 207.368V225H278.657V207.368H282.305ZM303.414 215.752C303.414 216.413 303.372 217.011 303.286 217.544H289.814C289.921 218.952 290.444 220.083 291.382 220.936C292.321 221.789 293.473 222.216 294.838 222.216C296.801 222.216 298.188 221.395 298.998 219.752H302.934C302.401 221.373 301.43 222.707 300.022 223.752C298.636 224.776 296.908 225.288 294.838 225.288C293.153 225.288 291.638 224.915 290.294 224.168C288.972 223.4 287.926 222.333 287.158 220.968C286.412 219.581 286.038 217.981 286.038 216.168C286.038 214.355 286.401 212.765 287.126 211.4C287.873 210.013 288.908 208.947 290.23 208.2C291.574 207.453 293.11 207.08 294.838 207.08C296.502 207.08 297.985 207.443 299.286 208.168C300.588 208.893 301.601 209.917 302.326 211.24C303.052 212.541 303.414 214.045 303.414 215.752ZM299.606 214.6C299.585 213.256 299.105 212.179 298.166 211.368C297.228 210.557 296.065 210.152 294.678 210.152C293.42 210.152 292.342 210.557 291.446 211.368C290.55 212.157 290.017 213.235 289.846 214.6H299.606ZM305.948 216.104C305.948 214.333 306.311 212.765 307.036 211.4C307.783 210.035 308.786 208.979 310.044 208.232C311.324 207.464 312.743 207.08 314.3 207.08C315.452 207.08 316.583 207.336 317.692 207.848C318.823 208.339 319.719 209 320.38 209.832V201.32H324.06V225H320.38V222.344C319.783 223.197 318.951 223.901 317.884 224.456C316.839 225.011 315.634 225.288 314.268 225.288C312.732 225.288 311.324 224.904 310.044 224.136C308.786 223.347 307.783 222.259 307.036 220.872C306.311 219.464 305.948 217.875 305.948 216.104ZM320.38 216.168C320.38 214.952 320.124 213.896 319.612 213C319.122 212.104 318.471 211.421 317.66 210.952C316.85 210.483 315.975 210.248 315.036 210.248C314.098 210.248 313.223 210.483 312.412 210.952C311.602 211.4 310.94 212.072 310.428 212.968C309.938 213.843 309.692 214.888 309.692 216.104C309.692 217.32 309.938 218.387 310.428 219.304C310.94 220.221 311.602 220.925 312.412 221.416C313.244 221.885 314.119 222.12 315.036 222.12C315.975 222.12 316.85 221.885 317.66 221.416C318.471 220.947 319.122 220.264 319.612 219.368C320.124 218.451 320.38 217.384 320.38 216.168Z" fill="#CA498C"/>
<path d="M165.304 259.5V256.588H171.128V277H167.908V259.5H165.304ZM179.573 273.164L176.185 280.892H174.113L176.101 273.164H179.573ZM182.082 266.528C182.082 263.299 182.624 260.779 183.706 258.968C184.808 257.139 186.693 256.224 189.362 256.224C192.032 256.224 193.908 257.139 194.99 258.968C196.092 260.779 196.642 263.299 196.642 266.528C196.642 269.795 196.092 272.352 194.99 274.2C193.908 276.029 192.032 276.944 189.362 276.944C186.693 276.944 184.808 276.029 183.706 274.2C182.624 272.352 182.082 269.795 182.082 266.528ZM193.506 266.528C193.506 265.016 193.404 263.737 193.198 262.692C193.012 261.647 192.62 260.797 192.022 260.144C191.425 259.472 190.538 259.136 189.362 259.136C188.186 259.136 187.3 259.472 186.702 260.144C186.105 260.797 185.704 261.647 185.498 262.692C185.312 263.737 185.218 265.016 185.218 266.528C185.218 268.096 185.312 269.412 185.498 270.476C185.685 271.54 186.077 272.399 186.674 273.052C187.29 273.705 188.186 274.032 189.362 274.032C190.538 274.032 191.425 273.705 192.022 273.052C192.638 272.399 193.04 271.54 193.226 270.476C193.413 269.412 193.506 268.096 193.506 266.528ZM200.16 266.528C200.16 263.299 200.701 260.779 201.784 258.968C202.885 257.139 204.771 256.224 207.44 256.224C210.109 256.224 211.985 257.139 213.068 258.968C214.169 260.779 214.72 263.299 214.72 266.528C214.72 269.795 214.169 272.352 213.068 274.2C211.985 276.029 210.109 276.944 207.44 276.944C204.771 276.944 202.885 276.029 201.784 274.2C200.701 272.352 200.16 269.795 200.16 266.528ZM211.584 266.528C211.584 265.016 211.481 263.737 211.276 262.692C211.089 261.647 210.697 260.797 210.1 260.144C209.503 259.472 208.616 259.136 207.44 259.136C206.264 259.136 205.377 259.472 204.78 260.144C204.183 260.797 203.781 261.647 203.576 262.692C203.389 263.737 203.296 265.016 203.296 266.528C203.296 268.096 203.389 269.412 203.576 270.476C203.763 271.54 204.155 272.399 204.752 273.052C205.368 273.705 206.264 274.032 207.44 274.032C208.616 274.032 209.503 273.705 210.1 273.052C210.716 272.399 211.117 271.54 211.304 270.476C211.491 269.412 211.584 268.096 211.584 266.528ZM218.237 266.528C218.237 263.299 218.779 260.779 219.861 258.968C220.963 257.139 222.848 256.224 225.517 256.224C228.187 256.224 230.063 257.139 231.145 258.968C232.247 260.779 232.797 263.299 232.797 266.528C232.797 269.795 232.247 272.352 231.145 274.2C230.063 276.029 228.187 276.944 225.517 276.944C222.848 276.944 220.963 276.029 219.861 274.2C218.779 272.352 218.237 269.795 218.237 266.528ZM229.661 266.528C229.661 265.016 229.559 263.737 229.353 262.692C229.167 261.647 228.775 260.797 228.177 260.144C227.58 259.472 226.693 259.136 225.517 259.136C224.341 259.136 223.455 259.472 222.857 260.144C222.26 260.797 221.859 261.647 221.653 262.692C221.467 263.737 221.373 265.016 221.373 266.528C221.373 268.096 221.467 269.412 221.653 270.476C221.84 271.54 222.232 272.399 222.829 273.052C223.445 273.705 224.341 274.032 225.517 274.032C226.693 274.032 227.58 273.705 228.177 273.052C228.793 272.399 229.195 271.54 229.381 270.476C229.568 269.412 229.661 268.096 229.661 266.528ZM240.235 273.164L236.847 280.892H234.775L236.763 273.164H240.235ZM242.744 266.528C242.744 263.299 243.285 260.779 244.368 258.968C245.469 257.139 247.355 256.224 250.024 256.224C252.693 256.224 254.569 257.139 255.652 258.968C256.753 260.779 257.304 263.299 257.304 266.528C257.304 269.795 256.753 272.352 255.652 274.2C254.569 276.029 252.693 276.944 250.024 276.944C247.355 276.944 245.469 276.029 244.368 274.2C243.285 272.352 242.744 269.795 242.744 266.528ZM254.168 266.528C254.168 265.016 254.065 263.737 253.86 262.692C253.673 261.647 253.281 260.797 252.684 260.144C252.087 259.472 251.2 259.136 250.024 259.136C248.848 259.136 247.961 259.472 247.364 260.144C246.767 260.797 246.365 261.647 246.16 262.692C245.973 263.737 245.88 265.016 245.88 266.528C245.88 268.096 245.973 269.412 246.16 270.476C246.347 271.54 246.739 272.399 247.336 273.052C247.952 273.705 248.848 274.032 250.024 274.032C251.2 274.032 252.087 273.705 252.684 273.052C253.3 272.399 253.701 271.54 253.888 270.476C254.075 269.412 254.168 268.096 254.168 266.528ZM260.821 266.528C260.821 263.299 261.363 260.779 262.445 258.968C263.547 257.139 265.432 256.224 268.101 256.224C270.771 256.224 272.647 257.139 273.729 258.968C274.831 260.779 275.381 263.299 275.381 266.528C275.381 269.795 274.831 272.352 273.729 274.2C272.647 276.029 270.771 276.944 268.101 276.944C265.432 276.944 263.547 276.029 262.445 274.2C261.363 272.352 260.821 269.795 260.821 266.528ZM272.245 266.528C272.245 265.016 272.143 263.737 271.937 262.692C271.751 261.647 271.359 260.797 270.761 260.144C270.164 259.472 269.277 259.136 268.101 259.136C266.925 259.136 266.039 259.472 265.441 260.144C264.844 260.797 264.443 261.647 264.237 262.692C264.051 263.737 263.957 265.016 263.957 266.528C263.957 268.096 264.051 269.412 264.237 270.476C264.424 271.54 264.816 272.399 265.413 273.052C266.029 273.705 266.925 274.032 268.101 274.032C269.277 274.032 270.164 273.705 270.761 273.052C271.377 272.399 271.779 271.54 271.965 270.476C272.152 269.412 272.245 268.096 272.245 266.528ZM278.899 266.528C278.899 263.299 279.44 260.779 280.523 258.968C281.624 257.139 283.51 256.224 286.179 256.224C288.848 256.224 290.724 257.139 291.807 258.968C292.908 260.779 293.459 263.299 293.459 266.528C293.459 269.795 292.908 272.352 291.807 274.2C290.724 276.029 288.848 276.944 286.179 276.944C283.51 276.944 281.624 276.029 280.523 274.2C279.44 272.352 278.899 269.795 278.899 266.528ZM290.323 266.528C290.323 265.016 290.22 263.737 290.015 262.692C289.828 261.647 289.436 260.797 288.839 260.144C288.242 259.472 287.355 259.136 286.179 259.136C285.003 259.136 284.116 259.472 283.519 260.144C282.922 260.797 282.52 261.647 282.315 262.692C282.128 263.737 282.035 265.016 282.035 266.528C282.035 268.096 282.128 269.412 282.315 270.476C282.502 271.54 282.894 272.399 283.491 273.052C284.107 273.705 285.003 274.032 286.179 274.032C287.355 274.032 288.242 273.705 288.839 273.052C289.455 272.399 289.856 271.54 290.043 270.476C290.23 269.412 290.323 268.096 290.323 266.528ZM300.896 273.164L297.508 280.892H295.436L297.424 273.164H300.896ZM303.406 266.528C303.406 263.299 303.947 260.779 305.03 258.968C306.131 257.139 308.016 256.224 310.686 256.224C313.355 256.224 315.231 257.139 316.314 258.968C317.415 260.779 317.966 263.299 317.966 266.528C317.966 269.795 317.415 272.352 316.314 274.2C315.231 276.029 313.355 276.944 310.686 276.944C308.016 276.944 306.131 276.029 305.03 274.2C303.947 272.352 303.406 269.795 303.406 266.528ZM314.83 266.528C314.83 265.016 314.727 263.737 314.522 262.692C314.335 261.647 313.943 260.797 313.346 260.144C312.748 259.472 311.862 259.136 310.686 259.136C309.51 259.136 308.623 259.472 308.026 260.144C307.428 260.797 307.027 261.647 306.822 262.692C306.635 263.737 306.542 265.016 306.542 266.528C306.542 268.096 306.635 269.412 306.822 270.476C307.008 271.54 307.4 272.399 307.998 273.052C308.614 273.705 309.51 274.032 310.686 274.032C311.862 274.032 312.748 273.705 313.346 273.052C313.962 272.399 314.363 271.54 314.55 270.476C314.736 269.412 314.83 268.096 314.83 266.528ZM321.483 266.528C321.483 263.299 322.024 260.779 323.107 258.968C324.208 257.139 326.094 256.224 328.763 256.224C331.432 256.224 333.308 257.139 334.391 258.968C335.492 260.779 336.043 263.299 336.043 266.528C336.043 269.795 335.492 272.352 334.391 274.2C333.308 276.029 331.432 276.944 328.763 276.944C326.094 276.944 324.208 276.029 323.107 274.2C322.024 272.352 321.483 269.795 321.483 266.528ZM332.907 266.528C332.907 265.016 332.804 263.737 332.599 262.692C332.412 261.647 332.02 260.797 331.423 260.144C330.826 259.472 329.939 259.136 328.763 259.136C327.587 259.136 326.7 259.472 326.103 260.144C325.506 260.797 325.104 261.647 324.899 262.692C324.712 263.737 324.619 265.016 324.619 266.528C324.619 268.096 324.712 269.412 324.899 270.476C325.086 271.54 325.478 272.399 326.075 273.052C326.691 273.705 327.587 274.032 328.763 274.032C329.939 274.032 330.826 273.705 331.423 273.052C332.039 272.399 332.44 271.54 332.627 270.476C332.814 269.412 332.907 268.096 332.907 266.528ZM339.561 266.528C339.561 263.299 340.102 260.779 341.185 258.968C342.286 257.139 344.171 256.224 346.841 256.224C349.51 256.224 351.386 257.139 352.469 258.968C353.57 260.779 354.121 263.299 354.121 266.528C354.121 269.795 353.57 272.352 352.469 274.2C351.386 276.029 349.51 276.944 346.841 276.944C344.171 276.944 342.286 276.029 341.185 274.2C340.102 272.352 339.561 269.795 339.561 266.528ZM350.985 266.528C350.985 265.016 350.882 263.737 350.677 262.692C350.49 261.647 350.098 260.797 349.501 260.144C348.903 259.472 348.017 259.136 346.841 259.136C345.665 259.136 344.778 259.472 344.181 260.144C343.583 260.797 343.182 261.647 342.977 262.692C342.79 263.737 342.697 265.016 342.697 266.528C342.697 268.096 342.79 269.412 342.977 270.476C343.163 271.54 343.555 272.399 344.153 273.052C344.769 273.705 345.665 274.032 346.841 274.032C348.017 274.032 348.903 273.705 349.501 273.052C350.117 272.399 350.518 271.54 350.705 270.476C350.891 269.412 350.985 268.096 350.985 266.528ZM198.929 314.456C198.929 315.389 198.696 316.267 198.229 317.088C197.781 317.909 197.109 318.6 196.213 319.16C195.336 319.72 194.291 320.056 193.077 320.168V322.436H191.257V320.168C189.503 320 188.084 319.449 187.001 318.516C185.919 317.583 185.377 316.351 185.377 314.82H188.793C188.849 315.548 189.083 316.155 189.493 316.64C189.904 317.107 190.492 317.405 191.257 317.536V311.376C190.007 311.059 188.989 310.741 188.205 310.424C187.421 310.088 186.749 309.565 186.189 308.856C185.648 308.147 185.377 307.176 185.377 305.944C185.377 304.395 185.919 303.116 187.001 302.108C188.084 301.081 189.503 300.484 191.257 300.316V298.048H193.077V300.316C194.72 300.465 196.036 300.988 197.025 301.884C198.033 302.761 198.603 303.975 198.733 305.524H195.317C195.261 304.945 195.037 304.432 194.645 303.984C194.253 303.517 193.731 303.2 193.077 303.032V309.08C194.328 309.379 195.345 309.696 196.129 310.032C196.913 310.349 197.576 310.863 198.117 311.572C198.659 312.263 198.929 313.224 198.929 314.456ZM188.625 305.776C188.625 306.541 188.849 307.139 189.297 307.568C189.764 307.997 190.417 308.343 191.257 308.604V302.948C190.455 303.041 189.811 303.331 189.325 303.816C188.859 304.301 188.625 304.955 188.625 305.776ZM193.077 317.536C193.899 317.405 194.543 317.079 195.009 316.556C195.476 316.015 195.709 315.371 195.709 314.624C195.709 313.877 195.476 313.299 195.009 312.888C194.561 312.459 193.917 312.113 193.077 311.852V317.536ZM214.564 310.004C215.61 310.191 216.496 310.741 217.224 311.656C217.952 312.571 218.316 313.607 218.316 314.764C218.316 315.753 218.055 316.649 217.532 317.452C217.028 318.236 216.291 318.861 215.32 319.328C214.35 319.776 213.22 320 211.932 320H204.148V300.54H211.568C212.894 300.54 214.032 300.764 214.984 301.212C215.936 301.66 216.655 302.267 217.14 303.032C217.626 303.779 217.868 304.619 217.868 305.552C217.868 306.672 217.57 307.605 216.972 308.352C216.375 309.099 215.572 309.649 214.564 310.004ZM207.34 308.716H211.288C212.334 308.716 213.146 308.483 213.724 308.016C214.322 307.531 214.62 306.84 214.62 305.944C214.62 305.067 214.322 304.385 213.724 303.9C213.146 303.396 212.334 303.144 211.288 303.144H207.34V308.716ZM211.652 317.396C212.735 317.396 213.584 317.135 214.2 316.612C214.816 316.089 215.124 315.361 215.124 314.428C215.124 313.476 214.798 312.72 214.144 312.16C213.491 311.6 212.623 311.32 211.54 311.32H207.34V317.396H211.652ZM235.897 304.572V320H232.705V318.18C232.201 318.815 231.538 319.319 230.717 319.692C229.914 320.047 229.056 320.224 228.141 320.224C226.928 320.224 225.836 319.972 224.865 319.468C223.913 318.964 223.157 318.217 222.597 317.228C222.056 316.239 221.785 315.044 221.785 313.644V304.572H224.949V313.168C224.949 314.549 225.294 315.613 225.985 316.36C226.676 317.088 227.618 317.452 228.813 317.452C230.008 317.452 230.95 317.088 231.641 316.36C232.35 315.613 232.705 314.549 232.705 313.168V304.572H235.897ZM243.441 299.28V320H240.249V299.28H243.441ZM250.963 299.28V320H247.771V299.28H250.963ZM254.23 312.272C254.23 310.685 254.548 309.295 255.182 308.1C255.836 306.887 256.732 305.953 257.87 305.3C259.009 304.647 260.316 304.32 261.79 304.32C263.657 304.32 265.197 304.768 266.41 305.664C267.642 306.541 268.473 307.801 268.902 309.444H265.458C265.178 308.679 264.73 308.081 264.114 307.652C263.498 307.223 262.724 307.008 261.79 307.008C260.484 307.008 259.438 307.475 258.654 308.408C257.889 309.323 257.506 310.611 257.506 312.272C257.506 313.933 257.889 315.231 258.654 316.164C259.438 317.097 260.484 317.564 261.79 317.564C263.638 317.564 264.861 316.752 265.458 315.128H268.902C268.454 316.696 267.614 317.947 266.382 318.88C265.15 319.795 263.62 320.252 261.79 320.252C260.316 320.252 259.009 319.925 257.87 319.272C256.732 318.6 255.836 317.667 255.182 316.472C254.548 315.259 254.23 313.859 254.23 312.272ZM280.203 304.32C281.379 304.32 282.425 304.572 283.339 305.076C284.273 305.58 285.001 306.327 285.523 307.316C286.065 308.305 286.335 309.5 286.335 310.9V320H283.171V311.376C283.171 309.995 282.826 308.94 282.135 308.212C281.445 307.465 280.502 307.092 279.307 307.092C278.113 307.092 277.161 307.465 276.451 308.212C275.761 308.94 275.415 309.995 275.415 311.376V320H272.223V299.28H275.415V306.364C275.957 305.711 276.638 305.207 277.459 304.852C278.299 304.497 279.214 304.32 280.203 304.32ZM297.239 320.252C295.783 320.252 294.467 319.925 293.291 319.272C292.115 318.6 291.191 317.667 290.519 316.472C289.847 315.259 289.511 313.859 289.511 312.272C289.511 310.704 289.856 309.313 290.547 308.1C291.238 306.887 292.18 305.953 293.375 305.3C294.57 304.647 295.904 304.32 297.379 304.32C298.854 304.32 300.188 304.647 301.383 305.3C302.578 305.953 303.52 306.887 304.211 308.1C304.902 309.313 305.247 310.704 305.247 312.272C305.247 313.84 304.892 315.231 304.183 316.444C303.474 317.657 302.503 318.6 301.271 319.272C300.058 319.925 298.714 320.252 297.239 320.252ZM297.239 317.48C298.06 317.48 298.826 317.284 299.535 316.892C300.263 316.5 300.851 315.912 301.299 315.128C301.747 314.344 301.971 313.392 301.971 312.272C301.971 311.152 301.756 310.209 301.327 309.444C300.898 308.66 300.328 308.072 299.619 307.68C298.91 307.288 298.144 307.092 297.323 307.092C296.502 307.092 295.736 307.288 295.027 307.68C294.336 308.072 293.786 308.66 293.375 309.444C292.964 310.209 292.759 311.152 292.759 312.272C292.759 313.933 293.179 315.221 294.019 316.136C294.878 317.032 295.951 317.48 297.239 317.48ZM311.734 306.812C312.201 306.028 312.817 305.421 313.582 304.992C314.366 304.544 315.29 304.32 316.354 304.32V307.624H315.542C314.292 307.624 313.34 307.941 312.686 308.576C312.052 309.211 311.734 310.312 311.734 311.88V320H308.542V304.572H311.734V306.812ZM318.364 312.216C318.364 310.667 318.682 309.295 319.316 308.1C319.97 306.905 320.847 305.981 321.948 305.328C323.068 304.656 324.31 304.32 325.672 304.32C326.68 304.32 327.67 304.544 328.64 304.992C329.63 305.421 330.414 306 330.992 306.728V299.28H334.212V320H330.992V317.676C330.47 318.423 329.742 319.039 328.808 319.524C327.894 320.009 326.839 320.252 325.644 320.252C324.3 320.252 323.068 319.916 321.948 319.244C320.847 318.553 319.97 317.601 319.316 316.388C318.682 315.156 318.364 313.765 318.364 312.216ZM330.992 312.272C330.992 311.208 330.768 310.284 330.32 309.5C329.891 308.716 329.322 308.119 328.612 307.708C327.903 307.297 327.138 307.092 326.316 307.092C325.495 307.092 324.73 307.297 324.02 307.708C323.311 308.1 322.732 308.688 322.284 309.472C321.855 310.237 321.64 311.152 321.64 312.216C321.64 313.28 321.855 314.213 322.284 315.016C322.732 315.819 323.311 316.435 324.02 316.864C324.748 317.275 325.514 317.48 326.316 317.48C327.138 317.48 327.903 317.275 328.612 316.864C329.322 316.453 329.891 315.856 330.32 315.072C330.768 314.269 330.992 313.336 330.992 312.272Z" fill="#A2539B"/>
</svg>
