<svg width="502" height="502" viewBox="0 0 502 502" fill="none" xmlns="http://www.w3.org/2000/svg">
<path d="M251.001 250.991V1C389.071 1 501 112.925 501 250.991C501 359.294 431.26 455.28 328.255 488.747L251.001 250.991Z" fill="#CA498C" stroke="white"/>
<path d="M251.001 250.991L328.255 488.747C225.249 522.215 112.408 485.552 48.7469 397.933L251.001 250.991Z" fill="#FDE3DF" stroke="white"/>
<path d="M251.001 250.991L48.7469 397.932C8.17224 342.088 -7.5054 271.952 5.4295 204.147L251.001 250.991Z" fill="#E6BFCE" stroke="white"/>
<path d="M251.001 250.991L5.42938 204.147C15.3221 152.289 41.3786 104.894 79.8642 68.7551L251.001 250.991Z" fill="#CF9BBD" stroke="white"/>
<path d="M251.001 250.991L79.8644 68.7553C87.5006 61.5846 95.58 54.901 104.055 48.7439L251.001 250.991Z" fill="#B977AC" stroke="white"/>
<path d="M251.001 250.991L104.055 48.7441C146.766 17.7132 198.206 1 251.001 1V250.991Z" fill="#A2539B" stroke="white"/>
<circle cx="251" cy="251" r="150" fill="white"/>
<path d="M231.118 163.76V166.736H225.198V186H221.55V166.736H215.598V163.76H231.118ZM242.62 186.288C240.956 186.288 239.452 185.915 238.108 185.168C236.764 184.4 235.708 183.333 234.94 181.968C234.172 180.581 233.788 178.981 233.788 177.168C233.788 175.376 234.183 173.787 234.972 172.4C235.762 171.013 236.839 169.947 238.204 169.2C239.57 168.453 241.095 168.08 242.78 168.08C244.466 168.08 245.991 168.453 247.356 169.2C248.722 169.947 249.799 171.013 250.588 172.4C251.378 173.787 251.772 175.376 251.772 177.168C251.772 178.96 251.367 180.549 250.556 181.936C249.746 183.323 248.636 184.4 247.228 185.168C245.842 185.915 244.306 186.288 242.62 186.288ZM242.62 183.12C243.559 183.12 244.434 182.896 245.244 182.448C246.076 182 246.748 181.328 247.26 180.432C247.772 179.536 248.028 178.448 248.028 177.168C248.028 175.888 247.783 174.811 247.292 173.936C246.802 173.04 246.151 172.368 245.34 171.92C244.53 171.472 243.655 171.248 242.716 171.248C241.778 171.248 240.903 171.472 240.092 171.92C239.303 172.368 238.674 173.04 238.204 173.936C237.735 174.811 237.5 175.888 237.5 177.168C237.5 179.067 237.98 180.539 238.94 181.584C239.922 182.608 241.148 183.12 242.62 183.12ZM259.795 171.344V181.104C259.795 181.765 259.944 182.245 260.243 182.544C260.563 182.821 261.096 182.96 261.843 182.96H264.083V186H261.203C259.56 186 258.301 185.616 257.427 184.848C256.552 184.08 256.115 182.832 256.115 181.104V171.344H254.035V168.368H256.115V163.984H259.795V168.368H264.083V171.344H259.795ZM266.389 177.104C266.389 175.333 266.752 173.765 267.477 172.4C268.224 171.035 269.226 169.979 270.485 169.232C271.765 168.464 273.173 168.08 274.709 168.08C276.096 168.08 277.301 168.357 278.325 168.912C279.37 169.445 280.202 170.117 280.821 170.928V168.368H284.501V186H280.821V183.376C280.202 184.208 279.36 184.901 278.293 185.456C277.226 186.011 276.01 186.288 274.645 186.288C273.13 186.288 271.744 185.904 270.485 185.136C269.226 184.347 268.224 183.259 267.477 181.872C266.752 180.464 266.389 178.875 266.389 177.104ZM280.821 177.168C280.821 175.952 280.565 174.896 280.053 174C279.562 173.104 278.912 172.421 278.101 171.952C277.29 171.483 276.416 171.248 275.477 171.248C274.538 171.248 273.664 171.483 272.853 171.952C272.042 172.4 271.381 173.072 270.869 173.968C270.378 174.843 270.133 175.888 270.133 177.104C270.133 178.32 270.378 179.387 270.869 180.304C271.381 181.221 272.042 181.925 272.853 182.416C273.685 182.885 274.56 183.12 275.477 183.12C276.416 183.12 277.29 182.885 278.101 182.416C278.912 181.947 279.562 181.264 280.053 180.368C280.565 179.451 280.821 178.384 280.821 177.168ZM293.1 162.32V186H289.452V162.32H293.1ZM193.277 225.224C191.784 225.224 190.44 224.968 189.245 224.456C188.051 223.923 187.112 223.176 186.429 222.216C185.747 221.256 185.405 220.136 185.405 218.856H189.309C189.395 219.816 189.768 220.605 190.429 221.224C191.112 221.843 192.061 222.152 193.277 222.152C194.536 222.152 195.517 221.853 196.221 221.256C196.925 220.637 197.277 219.848 197.277 218.888C197.277 218.141 197.053 217.533 196.605 217.064C196.179 216.595 195.635 216.232 194.973 215.976C194.333 215.72 193.437 215.443 192.285 215.144C190.835 214.76 189.651 214.376 188.733 213.992C187.837 213.587 187.069 212.968 186.429 212.136C185.789 211.304 185.469 210.195 185.469 208.808C185.469 207.528 185.789 206.408 186.429 205.448C187.069 204.488 187.965 203.752 189.117 203.24C190.269 202.728 191.603 202.472 193.117 202.472C195.272 202.472 197.032 203.016 198.397 204.104C199.784 205.171 200.552 206.643 200.701 208.52H196.669C196.605 207.709 196.221 207.016 195.517 206.44C194.813 205.864 193.885 205.576 192.733 205.576C191.688 205.576 190.835 205.843 190.173 206.376C189.512 206.909 189.181 207.677 189.181 208.68C189.181 209.363 189.384 209.928 189.789 210.376C190.216 210.803 190.749 211.144 191.389 211.4C192.029 211.656 192.904 211.933 194.013 212.232C195.485 212.637 196.68 213.043 197.597 213.448C198.536 213.853 199.325 214.483 199.965 215.336C200.627 216.168 200.957 217.288 200.957 218.696C200.957 219.827 200.648 220.893 200.029 221.896C199.432 222.899 198.547 223.709 197.373 224.328C196.221 224.925 194.856 225.224 193.277 225.224ZM221.39 207.368V225H217.742V222.92C217.166 223.645 216.409 224.221 215.47 224.648C214.553 225.053 213.571 225.256 212.526 225.256C211.139 225.256 209.891 224.968 208.782 224.392C207.694 223.816 206.83 222.963 206.19 221.832C205.571 220.701 205.262 219.336 205.262 217.736V207.368H208.878V217.192C208.878 218.771 209.273 219.987 210.062 220.84C210.851 221.672 211.929 222.088 213.294 222.088C214.659 222.088 215.737 221.672 216.526 220.84C217.337 219.987 217.742 218.771 217.742 217.192V207.368H221.39ZM230.011 209.96C230.63 209.149 231.472 208.467 232.539 207.912C233.606 207.357 234.811 207.08 236.155 207.08C237.691 207.08 239.088 207.464 240.347 208.232C241.627 208.979 242.63 210.035 243.355 211.4C244.08 212.765 244.443 214.333 244.443 216.104C244.443 217.875 244.08 219.464 243.355 220.872C242.63 222.259 241.627 223.347 240.347 224.136C239.088 224.904 237.691 225.288 236.155 225.288C234.811 225.288 233.616 225.021 232.571 224.488C231.526 223.933 230.672 223.251 230.011 222.44V233.384H226.363V207.368H230.011V209.96ZM240.731 216.104C240.731 214.888 240.475 213.843 239.963 212.968C239.472 212.072 238.811 211.4 237.979 210.952C237.168 210.483 236.294 210.248 235.355 210.248C234.438 210.248 233.563 210.483 232.731 210.952C231.92 211.421 231.259 212.104 230.747 213C230.256 213.896 230.011 214.952 230.011 216.168C230.011 217.384 230.256 218.451 230.747 219.368C231.259 220.264 231.92 220.947 232.731 221.416C233.563 221.885 234.438 222.12 235.355 222.12C236.294 222.12 237.168 221.885 237.979 221.416C238.811 220.925 239.472 220.221 239.963 219.304C240.475 218.387 240.731 217.32 240.731 216.104ZM251.859 209.96C252.477 209.149 253.32 208.467 254.387 207.912C255.453 207.357 256.659 207.08 258.003 207.08C259.539 207.08 260.936 207.464 262.195 208.232C263.475 208.979 264.477 210.035 265.203 211.4C265.928 212.765 266.291 214.333 266.291 216.104C266.291 217.875 265.928 219.464 265.203 220.872C264.477 222.259 263.475 223.347 262.195 224.136C260.936 224.904 259.539 225.288 258.003 225.288C256.659 225.288 255.464 225.021 254.419 224.488C253.373 223.933 252.52 223.251 251.859 222.44V233.384H248.211V207.368H251.859V209.96ZM262.579 216.104C262.579 214.888 262.323 213.843 261.811 212.968C261.32 212.072 260.659 211.4 259.827 210.952C259.016 210.483 258.141 210.248 257.203 210.248C256.285 210.248 255.411 210.483 254.579 210.952C253.768 211.421 253.107 212.104 252.595 213C252.104 213.896 251.859 214.952 251.859 216.168C251.859 217.384 252.104 218.451 252.595 219.368C253.107 220.264 253.768 220.947 254.579 221.416C255.411 221.885 256.285 222.12 257.203 222.12C258.141 222.12 259.016 221.885 259.827 221.416C260.659 220.925 261.32 220.221 261.811 219.304C262.323 218.387 262.579 217.32 262.579 216.104ZM273.706 201.32V225H270.058V201.32H273.706ZM280.512 205.032C279.85 205.032 279.296 204.808 278.848 204.36C278.4 203.912 278.176 203.357 278.176 202.696C278.176 202.035 278.4 201.48 278.848 201.032C279.296 200.584 279.85 200.36 280.512 200.36C281.152 200.36 281.696 200.584 282.144 201.032C282.592 201.48 282.816 202.035 282.816 202.696C282.816 203.357 282.592 203.912 282.144 204.36C281.696 204.808 281.152 205.032 280.512 205.032ZM282.304 207.368V225H278.656V207.368H282.304ZM303.413 215.752C303.413 216.413 303.37 217.011 303.285 217.544H289.813C289.92 218.952 290.442 220.083 291.381 220.936C292.32 221.789 293.472 222.216 294.837 222.216C296.8 222.216 298.186 221.395 298.997 219.752H302.933C302.4 221.373 301.429 222.707 300.021 223.752C298.634 224.776 296.906 225.288 294.837 225.288C293.152 225.288 291.637 224.915 290.293 224.168C288.97 223.4 287.925 222.333 287.157 220.968C286.41 219.581 286.037 217.981 286.037 216.168C286.037 214.355 286.4 212.765 287.125 211.4C287.872 210.013 288.906 208.947 290.229 208.2C291.573 207.453 293.109 207.08 294.837 207.08C296.501 207.08 297.984 207.443 299.285 208.168C300.586 208.893 301.6 209.917 302.325 211.24C303.05 212.541 303.413 214.045 303.413 215.752ZM299.605 214.6C299.584 213.256 299.104 212.179 298.165 211.368C297.226 210.557 296.064 210.152 294.677 210.152C293.418 210.152 292.341 210.557 291.445 211.368C290.549 212.157 290.016 213.235 289.845 214.6H299.605ZM305.947 216.104C305.947 214.333 306.31 212.765 307.035 211.4C307.782 210.035 308.784 208.979 310.043 208.232C311.323 207.464 312.742 207.08 314.299 207.08C315.451 207.08 316.582 207.336 317.691 207.848C318.822 208.339 319.718 209 320.379 209.832V201.32H324.059V225H320.379V222.344C319.782 223.197 318.95 223.901 317.883 224.456C316.838 225.011 315.632 225.288 314.267 225.288C312.731 225.288 311.323 224.904 310.043 224.136C308.784 223.347 307.782 222.259 307.035 220.872C306.31 219.464 305.947 217.875 305.947 216.104ZM320.379 216.168C320.379 214.952 320.123 213.896 319.611 213C319.12 212.104 318.47 211.421 317.659 210.952C316.848 210.483 315.974 210.248 315.035 210.248C314.096 210.248 313.222 210.483 312.411 210.952C311.6 211.4 310.939 212.072 310.427 212.968C309.936 213.843 309.691 214.888 309.691 216.104C309.691 217.32 309.936 218.387 310.427 219.304C310.939 220.221 311.6 220.925 312.411 221.416C313.243 221.885 314.118 222.12 315.035 222.12C315.974 222.12 316.848 221.885 317.659 221.416C318.47 220.947 319.12 220.264 319.611 219.368C320.123 218.451 320.379 217.384 320.379 216.168Z" fill="#CA498C"/>
<path d="M147.226 259.5V256.588H153.05V277H149.83V259.5H147.226ZM157.575 266.528C157.575 263.299 158.116 260.779 159.199 258.968C160.3 257.139 162.185 256.224 164.855 256.224C167.524 256.224 169.4 257.139 170.483 258.968C171.584 260.779 172.135 263.299 172.135 266.528C172.135 269.795 171.584 272.352 170.483 274.2C169.4 276.029 167.524 276.944 164.855 276.944C162.185 276.944 160.3 276.029 159.199 274.2C158.116 272.352 157.575 269.795 157.575 266.528ZM168.999 266.528C168.999 265.016 168.896 263.737 168.691 262.692C168.504 261.647 168.112 260.797 167.515 260.144C166.917 259.472 166.031 259.136 164.855 259.136C163.679 259.136 162.792 259.472 162.195 260.144C161.597 260.797 161.196 261.647 160.991 262.692C160.804 263.737 160.711 265.016 160.711 266.528C160.711 268.096 160.804 269.412 160.991 270.476C161.177 271.54 161.569 272.399 162.167 273.052C162.783 273.705 163.679 274.032 164.855 274.032C166.031 274.032 166.917 273.705 167.515 273.052C168.131 272.399 168.532 271.54 168.719 270.476C168.905 269.412 168.999 268.096 168.999 266.528ZM175.652 266.528C175.652 263.299 176.194 260.779 177.276 258.968C178.378 257.139 180.263 256.224 182.932 256.224C185.602 256.224 187.478 257.139 188.56 258.968C189.662 260.779 190.212 263.299 190.212 266.528C190.212 269.795 189.662 272.352 188.56 274.2C187.478 276.029 185.602 276.944 182.932 276.944C180.263 276.944 178.378 276.029 177.276 274.2C176.194 272.352 175.652 269.795 175.652 266.528ZM187.076 266.528C187.076 265.016 186.974 263.737 186.768 262.692C186.582 261.647 186.19 260.797 185.592 260.144C184.995 259.472 184.108 259.136 182.932 259.136C181.756 259.136 180.87 259.472 180.272 260.144C179.675 260.797 179.274 261.647 179.068 262.692C178.882 263.737 178.788 265.016 178.788 266.528C178.788 268.096 178.882 269.412 179.068 270.476C179.255 271.54 179.647 272.399 180.244 273.052C180.86 273.705 181.756 274.032 182.932 274.032C184.108 274.032 184.995 273.705 185.592 273.052C186.208 272.399 186.61 271.54 186.796 270.476C186.983 269.412 187.076 268.096 187.076 266.528ZM197.65 273.164L194.262 280.892H192.19L194.178 273.164H197.65ZM200.159 266.528C200.159 263.299 200.7 260.779 201.783 258.968C202.884 257.139 204.769 256.224 207.439 256.224C210.108 256.224 211.984 257.139 213.067 258.968C214.168 260.779 214.719 263.299 214.719 266.528C214.719 269.795 214.168 272.352 213.067 274.2C211.984 276.029 210.108 276.944 207.439 276.944C204.769 276.944 202.884 276.029 201.783 274.2C200.7 272.352 200.159 269.795 200.159 266.528ZM211.583 266.528C211.583 265.016 211.48 263.737 211.275 262.692C211.088 261.647 210.696 260.797 210.099 260.144C209.501 259.472 208.615 259.136 207.439 259.136C206.263 259.136 205.376 259.472 204.779 260.144C204.181 260.797 203.78 261.647 203.575 262.692C203.388 263.737 203.295 265.016 203.295 266.528C203.295 268.096 203.388 269.412 203.575 270.476C203.761 271.54 204.153 272.399 204.751 273.052C205.367 273.705 206.263 274.032 207.439 274.032C208.615 274.032 209.501 273.705 210.099 273.052C210.715 272.399 211.116 271.54 211.303 270.476C211.489 269.412 211.583 268.096 211.583 266.528ZM218.236 266.528C218.236 263.299 218.778 260.779 219.86 258.968C220.962 257.139 222.847 256.224 225.516 256.224C228.186 256.224 230.062 257.139 231.144 258.968C232.246 260.779 232.796 263.299 232.796 266.528C232.796 269.795 232.246 272.352 231.144 274.2C230.062 276.029 228.186 276.944 225.516 276.944C222.847 276.944 220.962 276.029 219.86 274.2C218.778 272.352 218.236 269.795 218.236 266.528ZM229.66 266.528C229.66 265.016 229.558 263.737 229.352 262.692C229.166 261.647 228.774 260.797 228.176 260.144C227.579 259.472 226.692 259.136 225.516 259.136C224.34 259.136 223.454 259.472 222.856 260.144C222.259 260.797 221.858 261.647 221.652 262.692C221.466 263.737 221.372 265.016 221.372 266.528C221.372 268.096 221.466 269.412 221.652 270.476C221.839 271.54 222.231 272.399 222.828 273.052C223.444 273.705 224.34 274.032 225.516 274.032C226.692 274.032 227.579 273.705 228.176 273.052C228.792 272.399 229.194 271.54 229.38 270.476C229.567 269.412 229.66 268.096 229.66 266.528ZM236.314 266.528C236.314 263.299 236.855 260.779 237.938 258.968C239.039 257.139 240.924 256.224 243.594 256.224C246.263 256.224 248.139 257.139 249.222 258.968C250.323 260.779 250.874 263.299 250.874 266.528C250.874 269.795 250.323 272.352 249.222 274.2C248.139 276.029 246.263 276.944 243.594 276.944C240.924 276.944 239.039 276.029 237.938 274.2C236.855 272.352 236.314 269.795 236.314 266.528ZM247.738 266.528C247.738 265.016 247.635 263.737 247.43 262.692C247.243 261.647 246.851 260.797 246.254 260.144C245.656 259.472 244.77 259.136 243.594 259.136C242.418 259.136 241.531 259.472 240.934 260.144C240.336 260.797 239.935 261.647 239.73 262.692C239.543 263.737 239.45 265.016 239.45 266.528C239.45 268.096 239.543 269.412 239.73 270.476C239.916 271.54 240.308 272.399 240.906 273.052C241.522 273.705 242.418 274.032 243.594 274.032C244.77 274.032 245.656 273.705 246.254 273.052C246.87 272.399 247.271 271.54 247.458 270.476C247.644 269.412 247.738 268.096 247.738 266.528ZM258.311 273.164L254.923 280.892H252.851L254.839 273.164H258.311ZM260.82 266.528C260.82 263.299 261.362 260.779 262.444 258.968C263.546 257.139 265.431 256.224 268.1 256.224C270.77 256.224 272.646 257.139 273.728 258.968C274.83 260.779 275.38 263.299 275.38 266.528C275.38 269.795 274.83 272.352 273.728 274.2C272.646 276.029 270.77 276.944 268.1 276.944C265.431 276.944 263.546 276.029 262.444 274.2C261.362 272.352 260.82 269.795 260.82 266.528ZM272.244 266.528C272.244 265.016 272.142 263.737 271.936 262.692C271.75 261.647 271.358 260.797 270.76 260.144C270.163 259.472 269.276 259.136 268.1 259.136C266.924 259.136 266.038 259.472 265.44 260.144C264.843 260.797 264.442 261.647 264.236 262.692C264.05 263.737 263.956 265.016 263.956 266.528C263.956 268.096 264.05 269.412 264.236 270.476C264.423 271.54 264.815 272.399 265.412 273.052C266.028 273.705 266.924 274.032 268.1 274.032C269.276 274.032 270.163 273.705 270.76 273.052C271.376 272.399 271.778 271.54 271.964 270.476C272.151 269.412 272.244 268.096 272.244 266.528ZM278.898 266.528C278.898 263.299 279.439 260.779 280.522 258.968C281.623 257.139 283.508 256.224 286.178 256.224C288.847 256.224 290.723 257.139 291.806 258.968C292.907 260.779 293.458 263.299 293.458 266.528C293.458 269.795 292.907 272.352 291.806 274.2C290.723 276.029 288.847 276.944 286.178 276.944C283.508 276.944 281.623 276.029 280.522 274.2C279.439 272.352 278.898 269.795 278.898 266.528ZM290.322 266.528C290.322 265.016 290.219 263.737 290.014 262.692C289.827 261.647 289.435 260.797 288.838 260.144C288.24 259.472 287.354 259.136 286.178 259.136C285.002 259.136 284.115 259.472 283.518 260.144C282.92 260.797 282.519 261.647 282.314 262.692C282.127 263.737 282.034 265.016 282.034 266.528C282.034 268.096 282.127 269.412 282.314 270.476C282.5 271.54 282.892 272.399 283.49 273.052C284.106 273.705 285.002 274.032 286.178 274.032C287.354 274.032 288.24 273.705 288.838 273.052C289.454 272.399 289.855 271.54 290.042 270.476C290.228 269.412 290.322 268.096 290.322 266.528ZM296.975 266.528C296.975 263.299 297.517 260.779 298.599 258.968C299.701 257.139 301.586 256.224 304.255 256.224C306.925 256.224 308.801 257.139 309.883 258.968C310.985 260.779 311.535 263.299 311.535 266.528C311.535 269.795 310.985 272.352 309.883 274.2C308.801 276.029 306.925 276.944 304.255 276.944C301.586 276.944 299.701 276.029 298.599 274.2C297.517 272.352 296.975 269.795 296.975 266.528ZM308.399 266.528C308.399 265.016 308.297 263.737 308.091 262.692C307.905 261.647 307.513 260.797 306.915 260.144C306.318 259.472 305.431 259.136 304.255 259.136C303.079 259.136 302.193 259.472 301.595 260.144C300.998 260.797 300.597 261.647 300.391 262.692C300.205 263.737 300.111 265.016 300.111 266.528C300.111 268.096 300.205 269.412 300.391 270.476C300.578 271.54 300.97 272.399 301.567 273.052C302.183 273.705 303.079 274.032 304.255 274.032C305.431 274.032 306.318 273.705 306.915 273.052C307.531 272.399 307.933 271.54 308.119 270.476C308.306 269.412 308.399 268.096 308.399 266.528ZM318.973 273.164L315.585 280.892H313.513L315.501 273.164H318.973ZM321.482 266.528C321.482 263.299 322.023 260.779 323.106 258.968C324.207 257.139 326.093 256.224 328.762 256.224C331.431 256.224 333.307 257.139 334.39 258.968C335.491 260.779 336.042 263.299 336.042 266.528C336.042 269.795 335.491 272.352 334.39 274.2C333.307 276.029 331.431 276.944 328.762 276.944C326.093 276.944 324.207 276.029 323.106 274.2C322.023 272.352 321.482 269.795 321.482 266.528ZM332.906 266.528C332.906 265.016 332.803 263.737 332.598 262.692C332.411 261.647 332.019 260.797 331.422 260.144C330.825 259.472 329.938 259.136 328.762 259.136C327.586 259.136 326.699 259.472 326.102 260.144C325.505 260.797 325.103 261.647 324.898 262.692C324.711 263.737 324.618 265.016 324.618 266.528C324.618 268.096 324.711 269.412 324.898 270.476C325.085 271.54 325.477 272.399 326.074 273.052C326.69 273.705 327.586 274.032 328.762 274.032C329.938 274.032 330.825 273.705 331.422 273.052C332.038 272.399 332.439 271.54 332.626 270.476C332.813 269.412 332.906 268.096 332.906 266.528ZM339.559 266.528C339.559 263.299 340.101 260.779 341.183 258.968C342.285 257.139 344.17 256.224 346.839 256.224C349.509 256.224 351.385 257.139 352.467 258.968C353.569 260.779 354.119 263.299 354.119 266.528C354.119 269.795 353.569 272.352 352.467 274.2C351.385 276.029 349.509 276.944 346.839 276.944C344.17 276.944 342.285 276.029 341.183 274.2C340.101 272.352 339.559 269.795 339.559 266.528ZM350.983 266.528C350.983 265.016 350.881 263.737 350.675 262.692C350.489 261.647 350.097 260.797 349.499 260.144C348.902 259.472 348.015 259.136 346.839 259.136C345.663 259.136 344.777 259.472 344.179 260.144C343.582 260.797 343.181 261.647 342.975 262.692C342.789 263.737 342.695 265.016 342.695 266.528C342.695 268.096 342.789 269.412 342.975 270.476C343.162 271.54 343.554 272.399 344.151 273.052C344.767 273.705 345.663 274.032 346.839 274.032C348.015 274.032 348.902 273.705 349.499 273.052C350.115 272.399 350.517 271.54 350.703 270.476C350.89 269.412 350.983 268.096 350.983 266.528ZM357.637 266.528C357.637 263.299 358.178 260.779 359.261 258.968C360.362 257.139 362.248 256.224 364.917 256.224C367.586 256.224 369.462 257.139 370.545 258.968C371.646 260.779 372.197 263.299 372.197 266.528C372.197 269.795 371.646 272.352 370.545 274.2C369.462 276.029 367.586 276.944 364.917 276.944C362.248 276.944 360.362 276.029 359.261 274.2C358.178 272.352 357.637 269.795 357.637 266.528ZM369.061 266.528C369.061 265.016 368.958 263.737 368.753 262.692C368.566 261.647 368.174 260.797 367.577 260.144C366.98 259.472 366.093 259.136 364.917 259.136C363.741 259.136 362.854 259.472 362.257 260.144C361.66 260.797 361.258 261.647 361.053 262.692C360.866 263.737 360.773 265.016 360.773 266.528C360.773 268.096 360.866 269.412 361.053 270.476C361.24 271.54 361.632 272.399 362.229 273.052C362.845 273.705 363.741 274.032 364.917 274.032C366.093 274.032 366.98 273.705 367.577 273.052C368.193 272.399 368.594 271.54 368.781 270.476C368.968 269.412 369.061 268.096 369.061 266.528ZM198.928 314.456C198.928 315.389 198.695 316.267 198.228 317.088C197.78 317.909 197.108 318.6 196.212 319.16C195.335 319.72 194.29 320.056 193.076 320.168V322.436H191.256V320.168C189.502 320 188.083 319.449 187 318.516C185.918 317.583 185.376 316.351 185.376 314.82H188.792C188.848 315.548 189.082 316.155 189.492 316.64C189.903 317.107 190.491 317.405 191.256 317.536V311.376C190.006 311.059 188.988 310.741 188.204 310.424C187.42 310.088 186.748 309.565 186.188 308.856C185.647 308.147 185.376 307.176 185.376 305.944C185.376 304.395 185.918 303.116 187 302.108C188.083 301.081 189.502 300.484 191.256 300.316V298.048H193.076V300.316C194.719 300.465 196.035 300.988 197.024 301.884C198.032 302.761 198.602 303.975 198.732 305.524H195.316C195.26 304.945 195.036 304.432 194.644 303.984C194.252 303.517 193.73 303.2 193.076 303.032V309.08C194.327 309.379 195.344 309.696 196.128 310.032C196.912 310.349 197.575 310.863 198.116 311.572C198.658 312.263 198.928 313.224 198.928 314.456ZM188.624 305.776C188.624 306.541 188.848 307.139 189.296 307.568C189.763 307.997 190.416 308.343 191.256 308.604V302.948C190.454 303.041 189.81 303.331 189.324 303.816C188.858 304.301 188.624 304.955 188.624 305.776ZM193.076 317.536C193.898 317.405 194.542 317.079 195.008 316.556C195.475 316.015 195.708 315.371 195.708 314.624C195.708 313.877 195.475 313.299 195.008 312.888C194.56 312.459 193.916 312.113 193.076 311.852V317.536ZM214.563 310.004C215.608 310.191 216.495 310.741 217.223 311.656C217.951 312.571 218.315 313.607 218.315 314.764C218.315 315.753 218.054 316.649 217.531 317.452C217.027 318.236 216.29 318.861 215.319 319.328C214.348 319.776 213.219 320 211.931 320H204.147V300.54H211.567C212.892 300.54 214.031 300.764 214.983 301.212C215.935 301.66 216.654 302.267 217.139 303.032C217.624 303.779 217.867 304.619 217.867 305.552C217.867 306.672 217.568 307.605 216.971 308.352C216.374 309.099 215.571 309.649 214.563 310.004ZM207.339 308.716H211.287C212.332 308.716 213.144 308.483 213.723 308.016C214.32 307.531 214.619 306.84 214.619 305.944C214.619 305.067 214.32 304.385 213.723 303.9C213.144 303.396 212.332 303.144 211.287 303.144H207.339V308.716ZM211.651 317.396C212.734 317.396 213.583 317.135 214.199 316.612C214.815 316.089 215.123 315.361 215.123 314.428C215.123 313.476 214.796 312.72 214.143 312.16C213.49 311.6 212.622 311.32 211.539 311.32H207.339V317.396H211.651ZM235.896 304.572V320H232.704V318.18C232.2 318.815 231.537 319.319 230.716 319.692C229.913 320.047 229.054 320.224 228.14 320.224C226.926 320.224 225.834 319.972 224.864 319.468C223.912 318.964 223.156 318.217 222.596 317.228C222.054 316.239 221.784 315.044 221.784 313.644V304.572H224.948V313.168C224.948 314.549 225.293 315.613 225.984 316.36C226.674 317.088 227.617 317.452 228.812 317.452C230.006 317.452 230.949 317.088 231.64 316.36C232.349 315.613 232.704 314.549 232.704 313.168V304.572H235.896ZM243.439 299.28V320H240.247V299.28H243.439ZM250.962 299.28V320H247.77V299.28H250.962ZM254.229 312.272C254.229 310.685 254.546 309.295 255.181 308.1C255.834 306.887 256.73 305.953 257.869 305.3C259.008 304.647 260.314 304.32 261.789 304.32C263.656 304.32 265.196 304.768 266.409 305.664C267.641 306.541 268.472 307.801 268.901 309.444H265.457C265.177 308.679 264.729 308.081 264.113 307.652C263.497 307.223 262.722 307.008 261.789 307.008C260.482 307.008 259.437 307.475 258.653 308.408C257.888 309.323 257.505 310.611 257.505 312.272C257.505 313.933 257.888 315.231 258.653 316.164C259.437 317.097 260.482 317.564 261.789 317.564C263.637 317.564 264.86 316.752 265.457 315.128H268.901C268.453 316.696 267.613 317.947 266.381 318.88C265.149 319.795 263.618 320.252 261.789 320.252C260.314 320.252 259.008 319.925 257.869 319.272C256.73 318.6 255.834 317.667 255.181 316.472C254.546 315.259 254.229 313.859 254.229 312.272ZM280.202 304.32C281.378 304.32 282.423 304.572 283.338 305.076C284.271 305.58 284.999 306.327 285.522 307.316C286.063 308.305 286.334 309.5 286.334 310.9V320H283.17V311.376C283.17 309.995 282.825 308.94 282.134 308.212C281.443 307.465 280.501 307.092 279.306 307.092C278.111 307.092 277.159 307.465 276.45 308.212C275.759 308.94 275.414 309.995 275.414 311.376V320H272.222V299.28H275.414V306.364C275.955 305.711 276.637 305.207 277.458 304.852C278.298 304.497 279.213 304.32 280.202 304.32ZM297.238 320.252C295.782 320.252 294.466 319.925 293.29 319.272C292.114 318.6 291.19 317.667 290.518 316.472C289.846 315.259 289.51 313.859 289.51 312.272C289.51 310.704 289.855 309.313 290.546 308.1C291.236 306.887 292.179 305.953 293.374 305.3C294.568 304.647 295.903 304.32 297.378 304.32C298.852 304.32 300.187 304.647 301.382 305.3C302.576 305.953 303.519 306.887 304.21 308.1C304.9 309.313 305.246 310.704 305.246 312.272C305.246 313.84 304.891 315.231 304.182 316.444C303.472 317.657 302.502 318.6 301.27 319.272C300.056 319.925 298.712 320.252 297.238 320.252ZM297.238 317.48C298.059 317.48 298.824 317.284 299.534 316.892C300.262 316.5 300.85 315.912 301.298 315.128C301.746 314.344 301.97 313.392 301.97 312.272C301.97 311.152 301.755 310.209 301.326 309.444C300.896 308.66 300.327 308.072 299.618 307.68C298.908 307.288 298.143 307.092 297.322 307.092C296.5 307.092 295.735 307.288 295.026 307.68C294.335 308.072 293.784 308.66 293.374 309.444C292.963 310.209 292.758 311.152 292.758 312.272C292.758 313.933 293.178 315.221 294.018 316.136C294.876 317.032 295.95 317.48 297.238 317.48ZM311.733 306.812C312.2 306.028 312.816 305.421 313.581 304.992C314.365 304.544 315.289 304.32 316.353 304.32V307.624H315.541C314.291 307.624 313.339 307.941 312.685 308.576C312.051 309.211 311.733 310.312 311.733 311.88V320H308.541V304.572H311.733V306.812ZM318.363 312.216C318.363 310.667 318.681 309.295 319.315 308.1C319.969 306.905 320.846 305.981 321.947 305.328C323.067 304.656 324.309 304.32 325.671 304.32C326.679 304.32 327.669 304.544 328.639 304.992C329.629 305.421 330.413 306 330.991 306.728V299.28H334.211V320H330.991V317.676C330.469 318.423 329.741 319.039 328.807 319.524C327.893 320.009 326.838 320.252 325.643 320.252C324.299 320.252 323.067 319.916 321.947 319.244C320.846 318.553 319.969 317.601 319.315 316.388C318.681 315.156 318.363 313.765 318.363 312.216ZM330.991 312.272C330.991 311.208 330.767 310.284 330.319 309.5C329.89 308.716 329.321 308.119 328.611 307.708C327.902 307.297 327.137 307.092 326.315 307.092C325.494 307.092 324.729 307.297 324.019 307.708C323.31 308.1 322.731 308.688 322.283 309.472C321.854 310.237 321.639 311.152 321.639 312.216C321.639 313.28 321.854 314.213 322.283 315.016C322.731 315.819 323.31 316.435 324.019 316.864C324.747 317.275 325.513 317.48 326.315 317.48C327.137 317.48 327.902 317.275 328.611 316.864C329.321 316.453 329.89 315.856 330.319 315.072C330.767 314.269 330.991 313.336 330.991 312.272Z" fill="#A2539B"/>
</svg>
