<svg width="55" height="55" viewBox="0 0 55 55" fill="none" xmlns="http://www.w3.org/2000/svg">
<circle cx="27.5" cy="27.5" r="27.5" fill="#B1B1B1"/>
<circle cx="27.5" cy="27.5" r="23" stroke="black" stroke-opacity="0.72" stroke-width="9"/>
<path d="M28.6479 28.0007L32.9529 20.7483L35.0331 28.0007L32.9528 35.2515L28.6479 28.0007ZM26.5496 29.1785L30.8552 36.4298L23.3567 34.5556L17.9395 29.1785H26.5496ZM30.8543 19.5696L26.5496 26.822H17.9395L23.3567 21.4445L30.8543 19.5696ZM37 25.5326L34.3736 16L24.5708 18.5547L23.1196 21.0438L20.1751 21.0232L13 28.0014L20.1751 34.9779H20.1754L23.1187 34.9567L24.5719 37.4457L34.3736 40L36.9999 30.4693L35.5084 28.0008L36.9999 25.5327L37 25.5326Z" fill="#222C37"/>
</svg>
